<svg height="512" viewBox="0 0 128 128" width="512" xmlns="http://www.w3.org/2000/svg" fill="#F7B71E">
<g>
<path d="m109.11 43.266c-6.543-3.679-15.411-3.172-22.246.987v-3a10.612 10.612 0 0 0 -.29-16.132 12.08 12.08 0 0 0 -13.34-11.755 9.9 9.9 0 0 0 -13.38-4.4 13.115 13.115 0 0 0 -19.608 0 9.9 9.9 0 0 0 -13.38 4.4 12.079 12.079 0 0 0 -13.34 11.755 10.614 10.614 0 0 0 -.29 16.132v76.442a5.756 5.756 0 0 0 5.75 5.75h62.128a5.756 5.756 0 0 0 5.75-5.75v-14.78c8.951-3.181 27.288-12.433 30.96-35.539 2.438-15.342-4.413-21.691-8.714-24.11zm-22.246 24.008c1.426-7.848 4.855-11.358 7.49-12.916a9.7 9.7 0 0 1 7.814-1.1c4.542 1.541 4.576 7.5 3.806 12.226-1.931 11.84-7.934 18.177-12.489 20.006a7.379 7.379 0 0 1 -6.621-.258zm-70.574-39.857a1.751 1.751 0 0 0 .76-1.543l-.012-.192c-.007-.1-.015-.191-.015-.287a8.571 8.571 0 0 1 10.543-8.369 1.752 1.752 0 0 0 2.064-1.179 6.388 6.388 0 0 1 9.963-3.173 1.751 1.751 0 0 0 2.5-.407 9.616 9.616 0 0 1 15.905 0 1.751 1.751 0 0 0 2.505.407 6.388 6.388 0 0 1 9.963 3.173 1.752 1.752 0 0 0 2.063 1.179 8.7 8.7 0 0 1 1.945-.23 8.608 8.608 0 0 1 8.6 8.6c0 .1-.008.191-.015.287l-.011.192a1.751 1.751 0 0 0 .76 1.543 7.137 7.137 0 1 1 -8.747 11.241 1.749 1.749 0 0 0 -2.5.191 7.139 7.139 0 0 1 -11.4-.557 1.711 1.711 0 0 0 -1.484-.767 1.751 1.751 0 0 0 -1.451.828 9.568 9.568 0 0 1 -8.174 4.569 9.454 9.454 0 0 1 -4.268-1.023 1.75 1.75 0 0 0 -2.533 1.565v7.314a4.232 4.232 0 1 1 -8.464 0l-.007-7.6a1.75 1.75 0 0 0 -1.75-1.749 7.124 7.124 0 0 1 -5.49-2.577 1.747 1.747 0 0 0 -1.212-.625c-.044 0-.089 0-.133 0a1.748 1.748 0 0 0 -1.159.439 7.136 7.136 0 1 1 -8.746-11.25zm2.572 16.442a10.684 10.684 0 0 0 7.156-1.572 10.6 10.6 0 0 0 5.263 2.5l.006 5.993a7.732 7.732 0 0 0 15.464 0v-4.789a12.767 12.767 0 0 0 3.3.431 13.02 13.02 0 0 0 9.757-4.36 10.638 10.638 0 0 0 14.275.225 10.676 10.676 0 0 0 7.156 1.572 10.385 10.385 0 0 0 2.125-.525v42.695a1.812 1.812 0 0 0 0 .2v14.8l-2.719 3.2a13.238 13.238 0 0 1 -10.1 4.671h-40.99a13.231 13.231 0 0 1 -10.1-4.671l-2.721-3.2v-57.696a10.348 10.348 0 0 0 2.128.526zm62.252 76.084h-62.128a2.253 2.253 0 0 1 -2.25-2.25v-11.267l.054.063a16.725 16.725 0 0 0 12.765 5.905h40.991a16.728 16.728 0 0 0 12.766-5.905l.052-.062v11.266a2.253 2.253 0 0 1 -2.25 2.25zm33.253-53.118c-3.229 20.321-18.871 29.043-27.5 32.357v-10.105a10.151 10.151 0 0 0 3.394.581 12.163 12.163 0 0 0 4.532-.92c7.11-2.856 12.856-11.762 14.639-22.691 1.4-8.568-.783-14.288-6.136-16.1a13.28 13.28 0 0 0 -10.72 1.4 16.776 16.776 0 0 0 -5.709 5.768v-8.6c5.88-4.581 14.563-5.555 20.531-2.2 6.053 3.408 8.53 10.691 6.969 20.51z"/><path d="m67.576 95.563a1.75 1.75 0 0 0 1.75-1.75v-26.392a1.75 1.75 0 0 0 -3.5 0v26.392a1.75 1.75 0 0 0 1.75 1.75z"/><path d="m32.516 95.563a1.751 1.751 0 0 0 1.75-1.75v-26.392a1.75 1.75 0 0 0 -3.5 0v26.392a1.75 1.75 0 0 0 1.75 1.75z"/><path d="m50.046 95.563a1.75 1.75 0 0 0 1.75-1.75v-26.392a1.75 1.75 0 0 0 -3.5 0v26.392a1.75 1.75 0 0 0 1.75 1.75z"/></g></svg>