<svg id="Capa_1" data-name="Capa 1" xmlns="http://www.w3.org/2000/svg" viewBox="0 0 512 512"><path d="M385.35,175.09H357.17v-37A70.09,70.09,0,0,0,270.7,29.75a4.44,4.44,0,0,1-5.56-1.09,80.26,80.26,0,0,0-122.95,0,4.46,4.46,0,0,1-5.56,1.09A70.09,70.09,0,0,0,50.16,138.12V466.87A45.17,45.17,0,0,0,95.29,512H312a45.18,45.18,0,0,0,45.13-45.13V452.51h28.18a95.36,95.36,0,0,0,95.26-95.26V270.36a95.37,95.37,0,0,0-95.26-95.27Zm-28.18,90.25h18.15a15.06,15.06,0,0,1,15,15v66.84a15.06,15.06,0,0,1-15,15H357.17ZM61.52,88.51A40.33,40.33,0,0,1,99,50.47a39.86,39.86,0,0,1,22.48,5.3A34.41,34.41,0,0,0,165.22,48a50.17,50.17,0,0,1,76.88,0,34.42,34.42,0,0,0,43.7,7.76,40,40,0,0,1,51.13,59.83H170.5v94.53a15,15,0,0,1-30.09,0V115.6h-70A40,40,0,0,1,61.52,88.51ZM327.08,466.87a15.06,15.06,0,0,1-15,15.05H95.29a15.07,15.07,0,0,1-15.05-15.05V145.68h30.09v64.45a45.13,45.13,0,0,0,90.25,0V145.68h126.5ZM450.53,357.25a65.25,65.25,0,0,1-65.18,65.18H357.17V392.34h18.15a45.17,45.17,0,0,0,45.12-45.12V280.38a45.17,45.17,0,0,0-45.12-45.12H357.17V205.17h28.18a65.25,65.25,0,0,1,65.18,65.18Z" fill="#fff"/></svg>