<svg width="47" height="46" viewBox="0 0 47 46" fill="none" xmlns="http://www.w3.org/2000/svg">
    <path
        d="M14.8679 35.6299C12.1805 35.6299 10.002 37.8085 10.002 40.4958C10.002 43.1833 12.1806 45.3618 14.8679 45.3618C17.5554 45.3618 19.7339 43.1832 19.7339 40.4958C19.734 37.8085 17.5554 35.6299 14.8679 35.6299ZM14.8679 43.1992C13.3749 43.1992 12.1646 41.9889 12.1646 40.4959C12.1646 39.0029 13.3749 37.7927 14.8679 37.7927C16.3609 37.7927 17.5712 39.0029 17.5712 40.4959C17.5713 41.9889 16.3609 43.1992 14.8679 43.1992Z"
        fill="#F0D172" />
    <path
        d="M35.4138 35.6299C32.7264 35.6299 30.5479 37.8085 30.5479 40.4958C30.5479 43.1833 32.7265 45.3618 35.4138 45.3618C38.1012 45.3618 40.2798 43.1832 40.2798 40.4958C40.2798 37.8085 38.1013 35.6299 35.4138 35.6299ZM35.4138 43.1992C33.9208 43.1992 32.7105 41.9889 32.7105 40.4959C32.7105 39.0029 33.9208 37.7927 35.4138 37.7927C36.9068 37.7927 38.1171 39.0029 38.1171 40.4959C38.1172 41.9889 36.9068 43.1992 35.4138 43.1992Z"
        fill="#F0D172" />
    <path
        d="M46.3891 7.24501C46.1639 6.99902 45.8559 6.84504 45.5241 6.81244L10.3267 6.32584L9.35356 3.35215C8.66796 1.36427 6.80644 0.0222497 4.70379 0H1.08133C0.484112 0 0 0.484112 0 1.08133C0 1.67856 0.484112 2.16267 1.08133 2.16267H4.70379C5.8795 2.18864 6.91479 2.94358 7.29903 4.05503L14.1655 24.7625L13.6249 26.006C13.0219 27.561 13.203 29.3112 14.1115 30.7098C15.0113 32.0835 16.5251 32.9313 18.1665 32.9806H39.1985C39.7957 32.9806 40.2798 32.4965 40.2798 31.8993C40.2798 31.3021 39.7957 30.818 39.1985 30.818H18.1664C17.2395 30.7948 16.3862 30.3072 15.8956 29.5204C15.4104 28.7432 15.3108 27.7857 15.6253 26.9251L16.0579 25.9519L38.8199 23.573C41.3201 23.2976 43.3768 21.4791 43.9563 19.0313L46.5515 8.16398C46.6684 7.85103 46.6063 7.49907 46.3891 7.24501ZM41.8476 18.5448C41.4966 20.1205 40.1588 21.2828 38.5496 21.4104L16.0579 23.7352L11.0296 8.48851L44.1724 8.97511L41.8476 18.5448Z"
        fill="#F0D172" />
</svg>