<svg width="40" height="39" viewBox="0 0 40 39" fill="none" xmlns="http://www.w3.org/2000/svg">
    <path
        d="M39.5746 15.5809L20.614 1.00424C20.2484 0.723197 19.7516 0.723197 19.3862 1.00424L0.425435 15.5809C-0.0376891 15.937 -0.138314 16.6198 0.200826 17.1061C0.539966 17.5924 1.19036 17.6979 1.6534 17.342L20 3.2372L38.3466 17.3419C38.5316 17.4842 38.7466 17.5527 38.9597 17.5527C39.2797 17.5527 39.5955 17.3981 39.7991 17.106C40.1383 16.6198 40.0377 15.937 39.5746 15.5809Z"
        fill="#F0D172" />
    <path
        d="M34.5503 17.5889C33.9764 17.5889 33.511 18.0774 33.511 18.6801V36.0501H25.1968V26.5685C25.1968 23.5596 22.8654 21.1118 19.9999 21.1118C17.1344 21.1118 14.803 23.5597 14.803 26.5685V36.0502H6.48875V18.6802C6.48875 18.0775 6.02336 17.5889 5.44945 17.5889C4.87555 17.5889 4.41016 18.0775 4.41016 18.6802V37.1416C4.41016 37.7442 4.87555 38.2328 5.44945 38.2328H15.8423C16.3889 38.2328 16.8362 37.7894 16.8776 37.2265C16.8801 37.201 16.8816 37.1731 16.8816 37.1416V26.5686C16.8816 24.7631 18.2804 23.2944 19.9999 23.2944C21.7193 23.2944 23.1182 24.7632 23.1182 26.5686V37.1416C23.1182 37.173 23.1197 37.2004 23.1222 37.2256C23.1632 37.7889 23.6106 38.2328 24.1575 38.2328H34.5503C35.1243 38.2328 35.5896 37.7442 35.5896 37.1416V18.6802C35.5896 18.0774 35.1242 17.5889 34.5503 17.5889Z"
        fill="#F0D172" />
</svg>