<svg width="109" height="128" viewBox="0 0 109 128" fill="none" xmlns="http://www.w3.org/2000/svg">
    <g clip-path="url(#clip0)">
        <path
            d="M88.76 115.699C82.5054 104.804 84.8948 96.7204 83.8406 74.2273C82.7865 51.7342 87.7059 22.5634 87.7059 22.5634L52.8484 22.4228H49.1939H45.5395L10.682 22.5634C10.682 22.5634 15.6014 51.7342 14.5473 74.2273C13.4931 96.7204 15.8825 104.804 9.62786 115.699C6.81677 120.619 13.4931 128.703 29.6569 128L49.1939 127.719L68.731 128C84.8948 128.703 91.5711 120.619 88.76 115.699Z"
            fill="#262D3B" />
        <path
            d="M12.1573 71.4157C10.1192 71.4157 7.02704 70.9237 4.35651 68.4635C0.912922 65.3707 3.02124 62.559 5.05928 59.8177C6.39455 57.9901 7.87037 56.022 8.7137 53.3509C9.90841 49.5552 8.43259 46.3218 6.18372 41.4014C4.49706 37.676 2.31847 32.9665 0.702091 26.4997C-0.492623 21.7199 -0.211513 18.2054 1.61569 15.8858C3.02124 14.1285 5.27011 13.1444 8.15148 13.1444C8.92453 13.1444 9.55702 13.2147 10.1192 13.285C10.4003 12.4415 10.8923 11.1763 11.9465 9.70016C15.1792 5.06096 19.4661 2.74135 24.8072 2.74135C31.9052 2.74135 38.5112 7.0291 40.1979 8.22405L41.4629 7.94289C49.9664 2.67106 57.8375 0 64.7949 0C72.1038 0 78.4287 2.95222 83.559 8.6458C87.635 13.2147 89.4622 17.2916 88.9 20.8062C88.4081 24.0395 86.0187 25.4454 85.8781 25.5156L15.3198 70.994L15.1792 71.0642C15.1089 71.0642 13.9142 71.4157 12.1573 71.4157ZM8.15148 15.2532C6.60538 15.2532 4.49706 15.6046 3.30235 17.151C1.8968 18.9083 1.75625 21.8605 2.74013 26.0077C4.28623 32.2636 6.39455 36.9028 8.0812 40.5579C10.4706 45.6892 12.1573 49.4849 10.6815 53.9835C9.69758 57.006 8.01092 59.2554 6.67566 61.0829C4.42678 64.1757 3.79429 65.2301 5.69177 66.9171C7.94065 68.8852 10.4004 69.307 12.087 69.307C13.2114 69.307 14.0548 69.0961 14.3359 69.0258L84.6834 23.6881C84.7537 23.6178 86.37 22.6337 86.7214 20.3844C87.1431 17.6431 85.4564 14.0582 81.8723 10.0516C77.3043 4.77979 71.4713 2.10873 64.7949 2.10873C58.1889 2.10873 50.5989 4.7095 42.3765 9.77046L42.2359 9.84075L39.706 10.5437L39.2843 10.2625C39.214 10.1922 32.116 4.92037 24.7369 4.92037C20.1689 4.92037 16.4442 6.95881 13.6331 10.9654C12.1573 13.0741 11.9465 14.6908 11.9465 14.6908L11.8059 15.8858L10.6112 15.6046C10.6112 15.5343 9.48675 15.2532 8.15148 15.2532Z"
            fill="#262D3B" />
        <path
            d="M85.5975 32.123L84.4028 45.6892L94.0307 44.7754C94.0307 44.7754 96.631 43.5805 96.8418 49.6958C97.0527 55.8111 96.631 87.1609 96.631 87.1609C96.631 87.1609 96.631 90.1834 93.328 91.5893C90.0249 92.9951 82.0836 95.5958 82.0836 95.5958L84.8947 108.459C84.8947 108.459 99.4421 102.625 103.167 100.024C106.891 97.4234 108.789 94.8929 108.578 90.3943C108.367 85.966 109.07 43.5102 109.07 43.5102C109.07 43.5102 105.767 33.1774 97.8257 32.4745C89.8844 31.7716 85.5975 32.123 85.5975 32.123Z"
            fill="#262D3B" />
        <path
            d="M73.0882 123.08C72.8071 124.556 76.1804 124.626 76.2506 122.798C76.3209 120.057 76.1804 31.139 76.1804 31.139L75.1262 30.8578C75.1262 30.8578 73.5801 120.619 73.0882 123.08Z"
            fill="#202632" />
    </g>
    <defs>
        <clipPath id="clip0">
            <rect width="109" height="128" fill="white" />
        </clipPath>
    </defs>
</svg>