<svg width="325" height="382" viewBox="0 0 325 382" fill="none" xmlns="http://www.w3.org/2000/svg">
    <g clip-path="url(#clip0)">
        <path
            d="M264.652 345.289C246.002 312.774 253.127 288.65 249.984 221.522C246.841 154.394 261.508 67.3377 261.508 67.3377L157.576 66.9182H146.679H135.783L31.8502 67.3377C31.8502 67.3377 46.5182 154.394 43.375 221.522C40.2319 288.65 47.3563 312.774 28.7071 345.289C20.3254 359.974 40.2319 384.098 88.4266 382L146.679 381.161L204.932 382C253.127 384.098 273.033 359.974 264.652 345.289Z"
            fill="#FAF0E3" />
        <path
            d="M36.251 213.131C30.1743 213.131 20.9544 211.663 12.9918 204.321C2.72424 195.091 9.0105 186.7 15.0872 178.518C19.0685 173.064 23.4689 167.191 25.9834 159.219C29.5456 147.891 25.1453 138.242 18.4399 123.557C13.4109 112.439 6.91508 98.3844 2.09561 79.0851C-1.46661 64.8204 -0.628439 54.3317 4.81966 47.4091C9.0105 42.1647 15.7159 39.2279 24.3071 39.2279C26.6121 39.2279 28.4979 39.4377 30.1743 39.6474C31.0124 37.1301 32.4792 33.3542 35.6224 28.9489C45.2613 15.1038 58.0434 8.18122 73.9686 8.18122C95.1324 8.18122 114.829 20.9775 119.858 24.5437L123.63 23.7046C148.985 7.97144 172.453 0 193.198 0C214.991 0 233.849 8.81054 249.146 25.8023C261.299 39.4377 266.747 51.6046 265.071 62.0934C263.604 71.743 256.48 75.9385 256.061 76.1483L45.6804 211.873L45.2613 212.082C45.0518 212.082 41.4895 213.131 36.251 213.131ZM24.3071 45.5211C19.6972 45.5211 13.4109 46.57 9.84867 51.1851C5.65783 56.4294 5.23874 65.24 8.17233 77.6167C12.7823 96.2867 19.0685 110.132 24.0975 121.04C31.222 136.354 36.251 147.682 31.8506 161.107C28.917 170.127 23.888 176.84 19.9067 182.294C13.2013 191.524 11.3155 194.671 16.9731 199.706C23.6785 205.579 31.0124 206.838 36.0415 206.838C39.3941 206.838 41.9086 206.209 42.7468 205.999L252.499 70.6941C252.708 70.4844 257.528 67.5475 258.575 60.8347C259.833 52.6535 254.804 41.955 244.117 29.9978C230.497 14.2647 213.105 6.29325 193.198 6.29325C173.501 6.29325 150.871 14.0549 126.354 29.1587L125.935 29.3685L118.392 31.4662L117.134 30.6271C116.925 30.4174 95.761 14.6842 73.759 14.6842C60.1388 14.6842 49.0331 20.7677 40.6514 32.7249C36.251 39.0181 35.6224 43.8429 35.6224 43.8429L35.2033 47.4091L31.6411 46.57C31.6411 46.3602 28.2884 45.5211 24.3071 45.5211Z"
            fill="#FAF0E3" />
        <path
            d="M255.222 95.8671L251.66 136.354L280.367 133.627C280.367 133.627 288.12 130.06 288.749 148.311C289.378 166.561 288.12 260.121 288.12 260.121C288.12 260.121 288.12 269.141 278.272 273.337C268.423 277.532 244.745 285.294 244.745 285.294L253.127 323.683C253.127 323.683 296.502 306.271 307.608 298.51C318.714 290.748 324.371 283.196 323.743 269.77C323.114 256.555 325.209 129.851 325.209 129.851C325.209 129.851 315.361 99.0138 291.683 96.916C268.004 94.8183 255.222 95.8671 255.222 95.8671Z"
            fill="#FAF0E3" />
        <path
            d="M217.924 367.316C217.086 371.721 227.144 371.931 227.353 366.477C227.563 358.295 227.144 92.9303 227.144 92.9303L224.001 92.0912C224.001 92.0912 219.391 359.974 217.924 367.316Z"
            fill="#202632" />
    </g>
    <defs>
        <clipPath id="clip0">
            <rect width="325" height="382" fill="white" />
        </clipPath>
    </defs>
</svg>