<svg width="45" height="45" viewBox="0 0 45 45" fill="none" xmlns="http://www.w3.org/2000/svg">
	<g clip-path="url(#clip0)">
		<path
			d="M31.9707 24.2515H25.8561C24.1826 24.2515 22.8218 25.6123 22.8218 27.2858V31.9752C22.8218 33.6487 24.1826 35.0095 25.8561 35.0095H31.9707C33.6442 35.0095 35.0051 33.6487 35.0051 31.9752V27.2858C35.0051 25.6123 33.6442 24.2515 31.9707 24.2515ZM32.7983 31.9752C32.7983 32.435 32.4213 32.8028 31.9707 32.8028H25.8561C25.3964 32.8028 25.0286 32.4258 25.0286 31.9752V27.2858C25.0286 26.826 25.4056 26.4582 25.8561 26.4582H31.9707C32.4305 26.4582 32.7983 26.8352 32.7983 27.2858V31.9752Z"
			fill="#F0D172" />
		<path
			d="M45 15.7279C45 15.5348 44.954 15.3509 44.8529 15.1854L38.159 3.41587C37.9659 3.07566 37.5981 2.85498 37.2027 2.85498H7.78811C7.39273 2.85498 7.02493 3.06646 6.83184 3.41587L0.147119 15.1854C0.0551696 15.3509 0 15.5348 0 15.7279C0 18.3668 1.59072 20.6288 3.86187 21.631V41.0415C3.86187 41.6484 4.3584 42.1449 4.96526 42.1449H11.0615C11.0707 42.1449 11.0799 42.1449 11.0891 42.1449H19.6404C19.6496 42.1449 19.6588 42.1449 19.668 42.1449H40.0255C40.6324 42.1449 41.1289 41.6484 41.1289 41.0415V21.769C41.1289 21.723 41.1289 21.6862 41.1197 21.6494C43.4001 20.6472 45 18.376 45 15.7279ZM8.43175 5.07096H36.5591L41.791 14.2751H3.20903L8.43175 5.07096ZM32.026 16.4727C31.6765 18.4588 29.9387 19.9667 27.8515 19.9667C25.7642 19.9667 24.0264 18.4588 23.677 16.4727H32.026ZM21.3322 16.4727C20.9828 18.4588 19.245 19.9667 17.1577 19.9667C15.0705 19.9667 13.3327 18.4588 12.9741 16.4727H21.3322ZM2.28034 16.4727H10.6385C10.2891 18.4588 8.54209 19.9667 6.45484 19.9667C4.36759 19.9759 2.62975 18.4588 2.28034 16.4727ZM18.537 39.9381H12.1925V28.0307C12.1925 27.1664 12.8913 26.4584 13.7648 26.4584H16.9738C17.8382 26.4584 18.5462 27.1572 18.5462 28.0307V39.9381H18.537ZM38.9221 39.9381H20.7438V28.0307C20.7438 25.9526 19.0519 24.2516 16.9647 24.2516H13.7556C11.6776 24.2516 9.9765 25.9435 9.9765 28.0307V39.9473H6.06866V22.1735C6.19738 22.1827 6.32611 22.1827 6.45484 22.1827C8.68002 22.1827 10.6477 21.0517 11.8063 19.3323C12.9649 21.0517 14.9326 22.1827 17.1577 22.1827C19.3829 22.1827 21.3414 21.0517 22.5092 19.3323C23.6678 21.0517 25.6355 22.1827 27.8515 22.1827C30.0766 22.1827 32.0351 21.0517 33.1937 19.3323C34.3523 21.0517 36.32 22.1827 38.5452 22.1827C38.6739 22.1827 38.7934 22.1735 38.9221 22.1735V39.9381ZM38.5452 19.9759C36.4579 19.9759 34.7201 18.468 34.3707 16.4819H42.7289C42.3703 18.4588 40.6324 19.9759 38.5452 19.9759Z"
			fill="#F0D172" />
	</g>
	<defs>
		<clipPath id="clip0">
			<rect width="45" height="45" fill="white" />
		</clipPath>
	</defs>
</svg>